<?xml version="1.0" encoding="utf-8"?>
<!-- Generator: Adobe Illustrator 22.0.1, SVG Export Plug-In . SVG Version: 6.00 Build 0)  -->
<svg version="1.1" id="레이어_1" xmlns="http://www.w3.org/2000/svg" xmlns:xlink="http://www.w3.org/1999/xlink" x="0px"
	 y="0px" viewBox="0 0 300 100" style="enable-background:new 0 0 300 100;" xml:space="preserve">
<style type="text/css">
	.st0{fill:none;}
	.st1{fill:#534741;}
</style>
<rect x="-37" y="134.6" class="st0" width="361" height="225"/>
<g>
	<path class="st1" d="M21,30.6h7v16h16v-16h7v39h-7v-17H28v17h-7V30.6z"/>
	<path class="st1" d="M60,52.6v-22h7v22.6c0,8.5,3.2,11.4,7.9,11.4c4.8,0,8.1-2.8,8.1-11.4V30.6h7v22c0,12.9-5.8,17.9-14.9,17.9
		S60,65.5,60,52.6z"/>
	<path class="st1" d="M97.8,49.9c0-12.8,8.1-20.5,18.6-20.5c5.6,0,9.4,2.4,11.9,5l-3.7,4.5c-2-1.9-4.3-3.4-7.9-3.4
		c-7,0-11.6,5.4-11.6,14.2c0,9,4.2,14.4,12,14.4c2.2,0,4.9-1.7,4.9-1.7v-8.8h-7v-6h14v17.9c-2.7,2.6-7.3,4.7-12.6,4.7
		C105.7,70.1,97.8,62.9,97.8,49.9z"/>
	<path class="st1" d="M138,30.6h23v6h-17v10h14v5h-13v12h17v6h-24L138,30.6L138,30.6z"/>
	<path class="st1" d="M170,30.6h7.6l6.9,19.3c0.9,2.5,1.7,5.1,2.5,7.7h0.2c0.9-2.6,1.6-5.2,2.5-7.7l6.8-19.3h7.4v39h-6V51.2
		c0-3.6,0.6-8.9,0.9-12.6h-0.2l-3.2,9.2L189,65.6h-4.1l-6.5-17.8l-3.1-9.2h-0.2c0.3,3.6,0.9,9,0.9,12.6v18.4h-6L170,30.6L170,30.6z"
		/>
	<path class="st1" d="M222.2,30.6h8.2l12.7,39h-7.3l-6-21c-1.2-4.2-2.4-8.7-3.6-13H226c-1.1,4.3-2.2,8.9-3.5,13l-6,21h-7L222.2,30.6
		z M217,52.6h19v6h-19V52.6z"/>
	<path class="st1" d="M247,29.6h7.3L266.6,52l4.1,8.5h0.2c-0.3-4.2-0.9-9.1-0.9-13.6V30.6h7v39h-6.5l-12.9-21.8l-4.3-8.2H253
		c0.3,4.1,1,8.8,1,13v17h-7V29.6z"/>
</g>
</svg>
